<svg xmlns="http://www.w3.org/2000/svg" width="16" height="16" viewBox="0 0 16 16">
  <path class="fil0" fill="currentColor" id="border"
        d="M8 16c-4.42,0 -8,-3.58 -8,-8 0,-4.42 3.58,-8 8,-8 4.42,0 8,3.58 8,8 0,4.42 -3.58,8 -8,8zm0 -1.14c3.79,0 6.86,-3.07 6.86,-6.86 0,-3.79 -3.07,-6.86 -6.86,-6.86 -3.79,0 -6.86,3.07 -6.86,6.86 0,3.79 3.07,6.86 6.86,6.86z"/>
  <path class="fil0" fill="#DDDDDD" id="center" d="M8 11.24c-1.79,0 -3.24,-1.45 -3.24,-3.24 0,-1.79 1.45,-3.24 3.24,-3.24 1.79,0 3.24,1.45 3.24,3.24 0,1.79 -1.45,3.24 -3.24,3.24z"/>
</svg>
